<?xml version="1.0" encoding="UTF-8" standalone="no"?>
<svg xmlns="http://www.w3.org/2000/svg" width="235" height="200">
<path stroke="none" d="m 21.714286,200 0,-7.42857 24,-7.42857 0,-100.28577 -45.714286,0 0,-14.85714 45.714286,0 0,-19.9999 -45.714286,0 0,-14.85714 45.714286,0 0,-20.28577 -24,-7.42857 0,-7.42857 L 128,0 q 22.85714,0 41.14286,8.85719 18.28571,8.8571 26.00005,26.28572 l 39.71423,0 0,14.85714 -35.71433,0 Q 200,55.28574 200,60 q -0.28566,4.71426 -1.14286,9.99995 l 36,0 0,14.85714 -40,0 q -7.42857,17.42862 -25.71428,26.00005 Q 150.85714,119.42857 128,120 l -54.857143,0 0,64.57143 24.000003,8 0,7.42857 -75.428574,0 z m 51.428571,-94.85714 54.857143,0 q 11.42857,0 22.28571,-5.14286 10.85715,-5.14286 15.28574,-15.14291 l -92.428593,0 0,20.28577 z m 0,-35.14291 98.142883,0 q 1.28569,-6.28561 1.28569,-9.99995 0,-3.71434 -1.28569,-9.99995 l -98.142883,0 0,19.9999 z m 0,-34.85704 92.285763,0 Q 161.14286,26.57138 150.28571,20.78568 139.42857,14.99997 128,14.85714 l -54.857143,0 0,20.28577 z" />
</svg>